<?xml version="1.0" encoding="utf-8"?>
<!-- Generator: Adobe Illustrator 23.0.0, SVG Export Plug-In . SVG Version: 6.00 Build 0)  -->
<svg version="1.1" id="OBJECTS" xmlns="http://www.w3.org/2000/svg" xmlns:xlink="http://www.w3.org/1999/xlink" x="0px" y="0px"
	 viewBox="0 0 500 500" style="enable-background:new 0 0 500 500;" xml:space="preserve">
<style type="text/css">
	.st0{opacity:0.1;fill:#3A92DB;}
	.st1{fill:#42075E;}
	.st2{fill:#4B0C68;}
	.st3{fill:#AAE5E8;}
	.st4{fill:#EAA4CE;}
	.st5{fill:#651287;}
	.st6{fill:none;stroke:#8034A3;stroke-miterlimit:10;}
	.st7{clip-path:url(#SVGID_2_);fill:none;stroke:#8034A3;stroke-miterlimit:10;}
	.st8{clip-path:url(#SVGID_4_);}
	.st9{opacity:0.35;}
	.st10{clip-path:url(#SVGID_6_);}
	.st11{fill:none;stroke:#651287;stroke-miterlimit:10;}
	.st12{fill:none;stroke:#42075E;stroke-miterlimit:10;}
	.st13{fill:#F9CAE4;}
	.st14{opacity:0.35;clip-path:url(#SVGID_8_);fill:#D37AB4;}
	.st15{fill:#2375AD;}
	.st16{fill:none;stroke:#0B5782;stroke-width:2;stroke-miterlimit:10;}
	.st17{fill:#4EB9C4;}
	.st18{fill:#E2AFCE;}
	.st19{clip-path:url(#SVGID_10_);}
	.st20{clip-path:url(#SVGID_12_);fill:none;stroke:#8FD5D8;stroke-width:3;stroke-miterlimit:10;}
	.st21{fill:#3A92DB;}
	.st22{fill:#9F87C6;}
	.st23{fill:none;stroke:#5F2382;stroke-miterlimit:10;}
	.st24{clip-path:url(#SVGID_14_);fill:none;stroke:#5F2382;stroke-miterlimit:10;}
	.st25{fill:#E59AC6;}
	.st26{fill:#93278F;}
	.st27{clip-path:url(#SVGID_16_);fill:#93278F;}
	.st28{opacity:0.35;fill:#D37AB4;}
	.st29{opacity:0.35;clip-path:url(#SVGID_18_);fill:#D37AB4;}
	.st30{opacity:0.35;clip-path:url(#SVGID_20_);fill:#D37AB4;}
	.st31{opacity:0.35;clip-path:url(#SVGID_22_);fill:#D37AB4;}
	.st32{fill:#4F0970;}
	.st33{clip-path:url(#SVGID_24_);fill:none;stroke:#8034A3;stroke-miterlimit:10;}
	.st34{fill:#D37FB5;}
	.st35{clip-path:url(#SVGID_26_);fill:none;stroke:#5F2382;stroke-miterlimit:10;}
	.st36{fill:#D37AB4;}
	.st37{fill:#ED96CA;}
	.st38{clip-path:url(#SVGID_28_);fill:#FFFFFF;}
	.st39{clip-path:url(#SVGID_30_);fill:#FFFFFF;}
	.st40{clip-path:url(#SVGID_32_);fill:#FFFFFF;}
	.st41{clip-path:url(#SVGID_34_);}
	.st42{clip-path:url(#SVGID_36_);fill:#FFFFFF;}
	.st43{clip-path:url(#SVGID_38_);fill:none;stroke:#5F2382;stroke-miterlimit:10;}
</style>
<g>
	<circle class="st0" cx="257.72" cy="221.04" r="187.04"/>
	<g>
		<path class="st1" d="M281.46,96.9c0,0-19.14-13.47-43.25,4.96s-19.14,69.49-29.07,87.92c-9.93,18.44,11.35,23.4,11.35,23.4
			s19.14,31.91,44.67,8.51c0,0,19.85,25.53,41.83,2.84c0,0,14.89,8.51,22.69-4.25c7.8-12.76-4.25-19.46,0-57.24
			C333.93,125.26,319.75,86.97,281.46,96.9z"/>
		<path class="st2" d="M340.32,368.47c0,0-4.96,20.56-2.84,32.62c2.13,12.05-4.96,17.02-14.89,98.91h38.29
			c0,0,4.96-36.52,7.09-53.53c2.13-17.02,9.93-51.05,9.93-51.05l0,0v-26.94H340.32z"/>
		<path class="st3" d="M348.82,245.8v12.76c0,0-4.96-13.47-22.69-12.76s-46.09-7.8-46.09-7.8l5.67,33.33c0,0,30.49,0,39.71,6.38
			s4.96,20.56,3.55,31.2c-1.42,10.64,8.51,17.73,8.51,17.73s-1.42,8.87,0.71,17.55c2.13,8.68,2.13,24.28,2.13,24.28
			s16.31,14.89,48.22-1.42l-14.89-123.38L348.82,245.8z"/>
		<path class="st4" d="M365.13,135.19c23.38-1.67,38.29,17.73,41.13,33.33s9.93,29.07,6.38,43.25
			c-3.55,14.18-13.47,10.64-13.47,10.64s-7.09,31.2-38.29,29.78s-34.74-26.24-34.74-38.29c0-12.05,2.84-12.76,4.25-41.83
			S345.28,136.61,365.13,135.19z"/>
		<path class="st5" d="M329.66,183.43l1.38-18.52c0,0,10.34-4.2,22.04-19.44c0,0,10.28,28.06,26.94,37.96c0,0-2.13-7.83-3.55-13.85
			c0,0,6.58,17.41,20.21,16.31v13.83c0,0,14.54-2.84,13.12,10.99c-1.42,13.83-10.64,11.7-10.64,11.7s-4.2,11.66-7.58,15.6
			c0,0,11.3,3.55,22.03-3.9c10.73-7.45,12.5-16.66,11.79-30.49c-0.71-13.83-1.14-20.92,0.14-34.04c1.28-13.12-1.2-28.36-19.99-39.35
			c-18.79-10.99-36.52-9.57-45.38,0c0,0-15.6-7.45-25.88,9.22S316.17,173.89,329.66,183.43z"/>
		<path class="st6" d="M224.46,117.5"/>
		<g>
			<defs>
				<path id="SVGID_1_" d="M329.66,183.43l1.38-18.52c0,0,10.34-4.2,22.04-19.44c0,0,10.28,28.06,26.94,37.96
					c0,0-2.13-7.83-3.55-13.85c0,0,6.58,17.41,20.21,16.31v13.83c0,0,14.54-2.84,13.12,10.99c-1.42,13.83-10.64,11.7-10.64,11.7
					s-4.2,11.66-7.58,15.6c0,0,11.3,3.55,22.03-3.9c10.73-7.45,12.5-16.66,11.79-30.49c-0.71-13.83-1.14-20.92,0.14-34.04
					c1.28-13.12-1.2-28.36-19.99-39.35c-18.79-10.99-36.52-9.57-45.38,0c0,0-15.6-7.45-25.88,9.22S316.17,173.89,329.66,183.43z"/>
			</defs>
			<clipPath id="SVGID_2_">
				<use xlink:href="#SVGID_1_"  style="overflow:visible;"/>
			</clipPath>
			<path class="st7" d="M352.5,122.5c0,0,7.69,22.53-40.66,47.51"/>
			<path class="st7" d="M359.46,120.54c0,0,12.07,73.72,76.06,62.09"/>
			<path class="st7" d="M363.77,117.5c0,0,13.77,64.49,71.75,61.75"/>
		</g>
		<g>
			<defs>
				<path id="SVGID_3_" d="M348.82,245.8v12.76c0,0-4.96-13.47-22.69-12.76s-46.09-7.8-46.09-7.8l5.67,33.33c0,0,30.49,0,39.71,6.38
					s4.96,20.56,3.55,31.2c-1.42,10.64,8.51,17.73,8.51,17.73s-1.42,8.87,0.71,17.55c2.13,8.68,2.13,24.28,2.13,24.28
					s16.31,14.89,48.22-1.42l-14.89-123.38L348.82,245.8z"/>
			</defs>
			<clipPath id="SVGID_4_">
				<use xlink:href="#SVGID_3_"  style="overflow:visible;"/>
			</clipPath>
			<path class="st8" d="M317.86,274.62c0,0,25.09,2.18,21.57,25.37c-3.7,24.35,6.2,20.1,10.89,29.3c4.68,9.21,4.88,46.48,4.88,46.48
				l-24.29,1.78l-9.78-55.68L317.86,274.62z"/>
		</g>
		<g class="st9">
			<defs>
				<path id="SVGID_5_" class="st9" d="M340.32,368.47c0,0-4.96,20.56-2.84,32.62c2.13,12.05-4.96,17.02-14.89,98.91h38.29
					c0,0,4.96-36.52,7.09-53.53c2.13-17.02,9.93-51.05,9.93-51.05l0,0v-26.94H340.32z"/>
			</defs>
			<clipPath id="SVGID_6_">
				<use xlink:href="#SVGID_5_"  style="overflow:visible;"/>
			</clipPath>
			<path class="st10" d="M349.76,368.47c0,0,3.37,24.07,0.56,40.55c-2.82,16.48-14.25,68.48-14.03,90.98h-18.67l8.52-83.29
				l6.24-44.38L349.76,368.47z"/>
		</g>
		<path class="st11" d="M357.13,131.16c0,0,9.52-18.49,30.69-13.66c21.18,4.83,39.34,22.74,32.39,51.73"/>
		<path class="st11" d="M334.29,145.67"/>
		<path class="st11" d="M374.91,127.16"/>
		<path class="st11" d="M236.69,148.67c0,0-13.31-38.49-45.62-37.9c-30.71,0.56-40.96,13.13-45.18,42.01"/>
		<path class="st12" d="M430.25,236.11c0,0,13.42-7.44,22.09,3.73c8.67,11.16-1.1,60.98,6.48,76.72"/>
		<path class="st12" d="M60.24,203.76c0,0,14.44-27.2-13.55-30.53c-26.36-3.14-21.21,29.04-6.35,30.53"/>
		<path class="st12" d="M288.44,97.41c0,0-5.27-11.07-25.69-7.74c-20.42,3.33-31.31,23.85-35.79,29.03"/>
		<path class="st13" d="M280.04,107c19.45,1.75,37.58,18.61,34.92,37.23c-2.66,18.61-2.13,72.32-44.67,68.6
			s-32.97-42.01-34.57-55.31C234.13,144.23,238.74,103.28,280.04,107z"/>
		<path class="st13" d="M256.47,199.53l-2.66,23.4c0,0-6.91,1.06-22.34,6.91c-15.42,5.85-3.72,69.13,19.14,72.32
			c22.87,3.19,54.24-46.8,45.2-57.43c-9.04-10.64-20.48-18.61-20.48-18.61l4.7-23.4L256.47,199.53z"/>
		<g>
			<defs>
				<path id="SVGID_7_" d="M280.04,107c19.45,1.75,37.58,18.61,34.92,37.23c-2.66,18.61-2.13,72.32-44.67,68.6
					s-32.97-42.01-34.57-55.31C234.13,144.23,238.74,103.28,280.04,107z"/>
			</defs>
			<clipPath id="SVGID_8_">
				<use xlink:href="#SVGID_7_"  style="overflow:visible;"/>
			</clipPath>
			<circle class="st14" cx="299.68" cy="186.59" r="18.21"/>
			<circle class="st14" cx="240.79" cy="179.25" r="18.21"/>
		</g>
		<path class="st15" d="M215.52,333.02c0,0-8.51,13.29-11.7,29.25c-3.19,15.95-4.61,63.64,0.53,93.6c0,0,2.05,14.36,3.68,24.99
			c1.64,10.64,2.7,19.14,2.7,19.14h30.31c0,0,5.85-29.25,4.79-46.8c-1.06-17.55-2.93-57.59,0.13-78.52h5.19
			c0,0,0.53,43.95,5.85,66.82c5.32,22.87,7.45,58.5,7.45,58.5h30.84c0,0,1.06-12.76,2.13-36.69c1.07-23.93,6.38-30.31,6.92-70.73
			s-19.14-63.28-19.14-63.28S242.64,337.8,215.52,333.02z"/>
		<path class="st16" d="M275.35,331.17c0,0,17.71,27.61,16.68,46.39c-1.03,18.78-6.65,80.91-5.17,89.51
			c1.48,8.6,1.59,32.94,1.59,32.94"/>
		<path class="st17" d="M275.35,226.12c0,0,6.99,6.19,17.82,11.88c10.82,5.68,14.89,18.97,14.89,30.67c0,11.7,0.84,29.25,0.84,29.25
			s-13.07,6.38-26.89,0l-1.95-20.21c0,0,2.3,15.71,0,24.61c0,0,1.95,14.21,5.14,26.98c0,0-33.5,32.44-69.67,3.72
			c0,0,4.25-13.83,5.85-21.27c1.6-7.45,3.1-19.68,3.1-19.68s-9.49-10.1-3.1-24.99l-10.1,15.42c0,0-19.14-11.17-16.49-23.93
			c0,0,3.72,0.53,11.17-12.76c7.45-13.29,24.45-16.7,47.86-22.87c0,0-8.5,23.4-2.66,32.97S275.35,226.12,275.35,226.12z"/>
		<path d="M228.28,269.66c0,0,11.06,26.13,7.18,52.72S204,441.5,213.5,475c0,0-20.05-59.21-12.02-101.36
			C209.5,331.5,221.28,324,228.28,269.66z"/>
		<path class="st1" d="M280.04,114.36c0,0,5.52,34.62,42.44,45.53c0,0,11.75-53.11-42.44-57.24c-54.19-4.13-49.37,50.25-49.37,50.25
			S266.77,150.15,280.04,114.36z"/>
		<path class="st18" d="M308.89,297.92L308.89,297.92c0,0-13.86,6.38-26.89,0c0,0-0.12,16.97,1.54,24.17
			c0,0-48.87,11.79-66.95,22.79s-32.97,24.15-30.84,29.81c2.13,5.66,8.79,0,8.79,0s3.44,8.32,15.14-3.38c0,0,11.7-1.06,18.61-9.04
			c6.91-7.98,16.49-7.98,40.95-9.57c24.46-1.6,44.14-7.45,42.01-20.74C309.85,323.23,309.35,310.81,308.89,297.92z"/>
		<g>
			<defs>
				<path id="SVGID_9_" d="M308.89,297.92L308.89,297.92c0,0-13.86,6.38-26.89,0c0,0-0.12,16.97,1.54,24.17
					c0,0-48.87,11.79-66.95,22.79s-32.97,24.15-30.84,29.81c2.13,5.66,8.79,0,8.79,0s3.44,8.32,15.14-3.38c0,0,11.7-1.06,18.61-9.04
					c6.91-7.98,16.49-7.98,40.95-9.57c24.46-1.6,44.14-7.45,42.01-20.74C309.85,323.23,309.35,310.81,308.89,297.92z"/>
			</defs>
			<clipPath id="SVGID_10_">
				<use xlink:href="#SVGID_9_"  style="overflow:visible;"/>
			</clipPath>
			<path class="st19" d="M217.79,342.89c0,0,8.44,16.88,16.66,18.83c8.22,1.95,19.33-4.72,19.33-4.72l-29.31-19.26L217.79,342.89z"
				/>
		</g>
		<path class="st5" d="M224.47,127.16c0,0-20.12-21.22-55.22-8.45s-23.93,60.09-43.61,92s-36.69,26.59-35.1,45.2
			s19.68,15.95,19.68,15.95s-5.85,20.21,16.49,26.06s30.75-9.57,30.75-9.57s8.73,22.17,28.08,18c19.35-4.17,17.22-22.44,17.22-22.44
			s8.64,19.28,28.83,14.01c19.03-4.96,21.06-23.04,7.33-37.53c-4-4.22-9.04-26.21-1.6-49.65S254.7,155.82,224.47,127.16z"/>
		<path class="st13" d="M205.89,131.16c17.26,9.26,29.38,23.12,24.67,43.78s-9.31,26.16-11.83,40.62
			c-2.52,14.46-10.78,24.93-37.63,22.45l-4.82,20.92c0,0-15.83,7.57-25.47-11.7l6.2-17.9c0,0-12.39-5.51-11.01-22.72
			s6.88-27.34,7.57-46.71S181.01,117.81,205.89,131.16z"/>
		<path class="st13" d="M139.11,306.34c0,0-4.13,40.7-4.82,42.76c-0.69,2.07,51.24,6.88,51.24,6.88l3.2-31.67L139.11,306.34z"/>
		<g>
			<defs>
				<path id="SVGID_11_" d="M275.35,226.12c0,0,6.99,6.19,17.82,11.88c10.82,5.68,14.89,18.97,14.89,30.67
					c0,11.7,0.84,29.25,0.84,29.25s-13.07,6.38-26.89,0l-1.95-20.21c0,0,2.3,15.71,0,24.61c0,0,1.95,14.21,5.14,26.98
					c0,0-33.5,32.44-69.67,3.72c0,0,4.25-13.83,5.85-21.27c1.6-7.45,3.1-19.68,3.1-19.68s-9.49-10.1-3.1-24.99l-10.1,15.42
					c0,0-19.14-11.17-16.49-23.93c0,0,3.72,0.53,11.17-12.76c7.45-13.29,24.45-16.7,47.86-22.87c0,0-8.5,23.4-2.66,32.97
					S275.35,226.12,275.35,226.12z"/>
			</defs>
			<clipPath id="SVGID_12_">
				<use xlink:href="#SVGID_11_"  style="overflow:visible;"/>
			</clipPath>
			<path class="st20" d="M249.35,216c0,0-16.43,45.33,2.36,49.92s33.12-43.46,33.12-43.46"/>
		</g>
		<path class="st13" d="M176.29,426.21c0,0,0.69,36.49,0,51.63c-0.69,15.15-3.44,22.16-3.44,22.16h-38.56v-79.99l72.29-12.39
			c0,0,18.37,29.87,23.98,92.38h-36.04C194.53,500,183.86,480.59,176.29,426.21z"/>
		<path class="st21" d="M153.72,238.85c0,0,4.08,15.47,22.57,20.08c0,0,8.25,12.8,18.24,24.98c9.99,12.19,8.73,30.78-5.79,40.41
			c0,0,1.16,2.19,0,6.84c-1.16,4.66-1.81,11.08-1.81,11.08s-34.87,2.82-54.01-12.95c0,0,3.19-15.84,2.84-26.98
			c-0.35-11.14-7.45-18.58-4.25-36.66S145.09,239.33,153.72,238.85z"/>
		<path class="st22" d="M186.35,347.9l41.93,80.13c0,0-29.43,42.19-103.88,20.92c0,0-12.71-37.71,11.37-111.21
			C135.78,337.74,152.23,355.33,186.35,347.9z"/>
		<path class="st13" d="M143.55,242.92c12.72-7.19,24.83-0.7,31.12,8.01c6.28,8.7,31.83,23.06,31.83,23.06s22.32-12.84,37.74-13.6
			c15.42-0.76,19.14,1.66,28.19-3.81c9.04-5.46,11.43-7.59,18.35-7.59s11.43,1.6,7.98,4.79c-3.46,3.19-6.91,3.22-8.51,2.8
			c-1.6-0.41-3.46,2.51-3.46,2.51s22.65,3.01,24.62,12.23c0,0,4.62,4.61,3.83,7.45s-8.59-3.55-8.59-3.55s8.86,6.01,6.74,8.68
			c-2.13,2.67-9.03-4.78-9.03-4.78s7.38,8.15,4.55,9.57c-2.84,1.42-6.16-3.56-11.47-4.79s-17.55-3.01-22.07-10.1
			c0,0-8.42,0.35-16.93,3.9c-8.51,3.55-34.7,24.11-51.92,25.88c-17.21,1.77-21.47-9.57-29.98-15.24
			c-8.51-5.67-21.98-13.47-32.97-15.6C132.56,270.62,132.67,249.07,143.55,242.92z"/>
		<path class="st1" d="M110.49,196.52c0,0,24.91,14.35,47.6,73.65c0,0-9.06,28.39-44.24,36.4L110.49,196.52"/>
		<path class="st23" d="M46.68,197.42"/>
		<g>
			<defs>
				<path id="SVGID_13_" d="M280.04,114.36c0,0,5.52,34.62,42.44,45.53c0,0,11.75-53.11-42.44-57.24
					c-54.19-4.13-49.37,50.25-49.37,50.25S266.77,150.15,280.04,114.36z"/>
			</defs>
			<clipPath id="SVGID_14_">
				<use xlink:href="#SVGID_13_"  style="overflow:visible;"/>
			</clipPath>
			<path class="st24" d="M283.57,99c0,0,10.02,50.88,44.3,57.89"/>
			<path class="st24" d="M290.44,95.41c0,0,10.15,47.7,43.35,58.39"/>
			<path class="st24" d="M276.1,95.41c0,0-3.35,41.93-52.72,50.26"/>
		</g>
		<path d="M131.55,283.34c0,0,21.89,4.05,19.43,29.19c-2.46,25.14-19.32,65.89-15.63,96.71l-11.72-51.74l12.15-19.76l0.65-5.86
			c0,0-1.35-0.29-3.51-2.58c-2.16-2.29,0,0,0,0s3.59-18.41,2.84-26.98C135,293.75,131.55,283.34,131.55,283.34"/>
		<path d="M146,453.81c0,0,2,31.52-2.33,46.19h-9.38c0,0-0.29-46.33-0.45-49C133.83,451,138.81,453.17,146,453.81z"/>
		<path d="M180.86,453.62c0,0,6.33-1.03,10.46-2.32c0,0,1.72,14.83,3.28,21.34c1.56,6.52,9.58,27.35,9.58,27.35h-9.66
			C194.53,500,186.23,483.08,180.86,453.62z"/>
		<path class="st25" d="M255.35,209.41c0,0,11.06,6.63,22.66,3.45c0,0-5.08,11.4-24.2,10.08L255.35,209.41z"/>
		<path class="st25" d="M181.11,238c0,0-11.42,0.31-24.09-8.68s0,0,0,0l-3.3,9.52C153.72,238.85,160.95,248.59,181.11,238"/>
		<path class="st13" d="M390.48,222.93c14.43,3.35,35.09,27.82,23.13,60.97s-30.83,35.51-30.83,35.51l1.79,14.8
			c0,0-3.13,9.77-22.27,10.67v-20.91c0,0-40.7,3.19-29.92-49.99c0,0-7.34-7.79-3.26-15.99c4.09-8.21,12.44-1.56,12.44-1.56
			S353.79,214.43,390.48,222.93z"/>
		<path class="st26" d="M362.3,344.88c0,0-4.25,16.85-4.25,29.08s-4.21,20.21,8.53,29.25c0,0,1.04,4.79,3.17,11.43
			c2.13,6.65,3.41,15.51,3.41,15.51s37.36,6.03,57.92-8.15c0,0-7.09-13.47-5.67-31.2s5.67-42.9-13.47-57.08
			C411.93,333.72,373.29,342.21,362.3,344.88z"/>
		<path class="st22" d="M373.15,430.16l-1.22-6.82c0,0,30.28-1.28,56.94-6.62l4.33,8.48c0,0,27.3,16.66,25.53,74.81h-99.27
			C359.46,500,362.03,464.19,373.15,430.16z"/>
		<path class="st13" d="M402.18,336.21c12.61,8.67,8.56,32.18-3.19,34.57c-11.75,2.39-26.06,3.69-46.27,10.89
			c-20.21,7.2-37.76,11.45-55.31,3.47s-57.21-35.1-65.83-36.16c-8.62-1.06-26.66,0.24-25.09-6.53c1.58-6.77,13.41-6.24,13.41-6.24
			s-19.04,4.23-18.89-0.01s7.4-19.13,34.46-13.82c0,0-11.49-2.13-10.13-5.32c1.35-3.19,16.24-4.25,19.97,0
			c3.72,4.25,7.35,13.57,7.35,13.57s24.03,14.61,35.73,17.27c11.7,2.66,23.02,10.64,23.02,10.64s13.67-2.22,27.5-6.7
			S380.95,321.6,402.18,336.21z"/>
		<g>
			<defs>
				<path id="SVGID_15_" d="M402.18,336.21c12.61,8.67,8.56,32.18-3.19,34.57c-11.75,2.39-26.06,3.69-46.27,10.89
					c-20.21,7.2-37.76,11.45-55.31,3.47s-57.21-35.1-65.83-36.16c-8.62-1.06-26.66,0.24-25.09-6.53c1.58-6.77,13.41-6.24,13.41-6.24
					s-19.04,4.23-18.89-0.01s7.4-19.13,34.46-13.82c0,0-11.49-2.13-10.13-5.32c1.35-3.19,16.24-4.25,19.97,0
					c3.72,4.25,7.35,13.57,7.35,13.57s24.03,14.61,35.73,17.27c11.7,2.66,23.02,10.64,23.02,10.64s13.67-2.22,27.5-6.7
					S380.95,321.6,402.18,336.21z"/>
			</defs>
			<clipPath id="SVGID_16_">
				<use xlink:href="#SVGID_15_"  style="overflow:visible;"/>
			</clipPath>
			<path class="st27" d="M341.56,342.44c0,0-13.83,17.8,9.57,46.99l52.65-7.78l21.8-39.22l-8.39-23.25l-59.81,7.98L341.56,342.44z"
				/>
		</g>
		<circle class="st28" cx="356.69" cy="288.13" r="18.21"/>
		<g>
			<defs>
				<path id="SVGID_17_" d="M365.13,135.19c23.38-1.67,38.29,17.73,41.13,33.33s9.93,29.07,6.38,43.25
					c-3.55,14.18-13.47,10.64-13.47,10.64s-7.09,31.2-38.29,29.78s-34.74-26.24-34.74-38.29c0-12.05,2.84-12.76,4.25-41.83
					S345.28,136.61,365.13,135.19z"/>
			</defs>
			<clipPath id="SVGID_18_">
				<use xlink:href="#SVGID_17_"  style="overflow:visible;"/>
			</clipPath>
			<circle class="st29" cx="327.88" cy="207.79" r="18.21"/>
		</g>
		<g>
			<defs>
				<path id="SVGID_19_" d="M205.89,131.16c17.26,9.26,29.38,23.12,24.67,43.78s-9.31,26.16-11.83,40.62
					c-2.52,14.46-10.78,24.93-37.63,22.45l-4.82,20.92c0,0-15.83,7.57-25.47-11.7l6.2-17.9c0,0-12.39-5.51-11.01-22.72
					s6.88-27.34,7.57-46.71S181.01,117.81,205.89,131.16z"/>
			</defs>
			<clipPath id="SVGID_20_">
				<use xlink:href="#SVGID_19_"  style="overflow:visible;"/>
			</clipPath>
			<circle class="st30" cx="154.08" cy="195.3" r="18.21"/>
			<circle class="st30" cx="214.57" cy="214.98" r="18.21"/>
		</g>
		<path class="st25" d="M362.3,323.98c0,0,8.39,1.68,20.49-4.56c12.1-6.25,0,0,0,0s-8.44,16.55-20.49,15.57c-12.05-0.98,0,0,0,0
			V323.98"/>
		<polygon class="st4" points="116.61,318.66 121.05,294.09 101.18,290.64 93.74,318.66 		"/>
		<path class="st4" d="M87.36,199.53c14.66-7.15,43.87,7.3,46.93,22.26s17.95,29.22,14.23,50.01
			c-3.72,20.79-29.25,33.35-54.24,22.28C69.28,283.03,43.75,220.81,87.36,199.53z"/>
		<g>
			<defs>
				<path id="SVGID_21_" d="M87.36,199.53c14.66-7.15,43.87,7.3,46.93,22.26s17.95,29.22,14.23,50.01
					c-3.72,20.79-29.25,33.35-54.24,22.28C69.28,283.03,43.75,220.81,87.36,199.53z"/>
			</defs>
			<clipPath id="SVGID_22_">
				<use xlink:href="#SVGID_21_"  style="overflow:visible;"/>
			</clipPath>
			<circle class="st31" cx="91.02" cy="271.92" r="18.21"/>
			<circle class="st31" cx="148.77" cy="250" r="18.21"/>
		</g>
		<path class="st5" d="M86.83,422.36c0,0-8.51,9.57-11.7,23.4s11.49,26.06,15.32,34.57c0,0-1.7,13.29,0,19.68h36.27
			c0,0,11.42-34.04,13.69-77.64H86.83z"/>
		<path class="st17" d="M97.6,314.26c15.49-7,35.76,8.13,37.75,29.93c2,21.8-1.73,46.33,6.78,87.24c0,0-27.12,10.07-63.28-4.82
			c0,0,7.98-15.88,7.98-30.27S63.61,329.61,97.6,314.26z"/>
		<path class="st4" d="M100.65,321.85c8.38-10.28,27.39-4.43,33.64,11.88c6.25,16.31,27.23,47.93,27.23,47.93
			s8.27-14.93,15.19-25.67c6.91-10.74,17.55-19.07,21.45-26.69c3.9-7.62,7.14-11.84,14.54-17.04c9.22-6.48,9.22-5.48,15.6-7.61
			c6.38-2.12,5.82,4.7,2.28,6.83s-9.37,7.18-9.37,7.18s4.84-9.04,14.27-10.46c12.32-1.85,5.18,5.85,0.78,6.06
			s-11.78,9.19-11.78,9.19s11.96-7.09,20.12-4.79c8.15,2.3,1.77,6.56-3.19,6.91c-4.96,0.35-13.12,5.6-13.12,5.6
			s-6.23,9.3-17.35,17.3c0,0-12.43,18.03-19.52,33.2c-7.09,15.17-17.96,36.44-29.9,37.51s-32.82-31.82-40.46-41.61
			S80.88,346.12,100.65,321.85z"/>
		<path class="st17" d="M104.39,318.66c10.81-6.14,27.16,1.46,31.38,19.08l15.2,27.28h12.78c0,0-5.67,26.5-34.74,37.14l-1.77-12.71
			c0,0-4.61-12.03-13.12-15.79s-21.98-16.46-21.63-31.2S95.79,323.54,104.39,318.66z"/>
		<path class="st3" d="M127.24,389.44c0,0,18.87-7.48,23.73-24.42l-2.43-4.36c0,0-10.98,14.85-24.92,21.93L127.24,389.44z"/>
		<g>
			<path class="st1" d="M90.44,231.42c-3.87,2.38-6.68,5.8-8,9.8c-0.27,1.02-0.59,2.03-0.69,3.09c-0.25,1.05-0.19,2.13-0.29,3.21
				c-0.07,0.54,0.03,1.09,0.03,1.64l0.04,1.66c0.11,1.1,0.24,2.21,0.28,3.37c-0.47-1.03-0.86-2.11-1.25-3.19
				c-0.23-1.12-0.55-2.24-0.66-3.4c-0.25-2.32-0.04-4.71,0.64-6.99c0.78-2.26,2.07-4.35,3.82-5.96
				C86.08,233.04,88.19,231.86,90.44,231.42z"/>
		</g>
		<g>
			<path class="st1" d="M118.25,221.26c1.24-0.99,2.72-1.63,4.25-2.05c1.54-0.41,3.18-0.58,4.83-0.35c1.64,0.24,3.26,0.95,4.52,2.04
				c0.3,0.29,0.6,0.58,0.88,0.88l0.68,1.02c0.23,0.34,0.39,0.7,0.51,1.09c0.14,0.38,0.26,0.75,0.36,1.13
				c-0.29-0.28-0.57-0.55-0.83-0.83c-0.13-0.13-0.25-0.28-0.38-0.41c-0.13-0.13-0.29-0.24-0.43-0.36l-0.82-0.7
				c-0.31-0.18-0.6-0.38-0.9-0.56c-1.21-0.69-2.51-1.1-3.89-1.32C124.27,220.46,121.35,220.83,118.25,221.26z"/>
		</g>
		<g>
			<path class="st32" d="M158.09,175.96c-0.49-2.26-0.21-4.66,0.61-6.91c0.84-2.24,2.42-4.34,4.54-5.7c2.1-1.39,4.62-1.98,6.98-1.94
				c2.38,0.03,4.66,0.59,6.71,1.64c-2.29,0.18-4.47,0.29-6.51,0.71c-2.04,0.38-3.93,1.05-5.54,2.11c-1.62,1.04-2.97,2.49-4.07,4.23
				C159.7,171.82,158.84,173.8,158.09,175.96z"/>
		</g>
		<g>
			<path class="st32" d="M214.18,172.56c1.91-0.13,3.79,0.36,5.55,1.19c1.74,0.85,3.36,2.15,4.48,3.9c0.24,0.46,0.57,0.87,0.73,1.37
				c0.17,0.49,0.36,0.98,0.5,1.48c0.16,1.03,0.32,2.05,0.15,3.05c-0.03,1.01-0.41,1.94-0.73,2.84c-0.4,0.88-0.93,1.69-1.49,2.43
				c-0.06-0.98,0.08-1.86,0.05-2.74c-0.08-0.88,0-1.71-0.19-2.51l-0.09-0.59c-0.01-0.2-0.05-0.39-0.12-0.58
				c-0.12-0.37-0.22-0.74-0.32-1.11c-0.32-0.7-0.59-1.4-1.03-2.03c-0.82-1.28-1.92-2.45-3.21-3.53
				C217.17,174.64,215.74,173.62,214.18,172.56z"/>
		</g>
		<g>
			<path class="st1" d="M290.41,145.67c1.82,0.11,3.59,0.63,5.27,1.34c1.67,0.73,3.29,1.66,4.69,2.9c1.4,1.24,2.58,2.77,3.35,4.51
				c0.74,1.75,0.92,3.7,0.57,5.47c-0.5-1.77-1.07-3.34-1.96-4.76c-0.92-1.39-2.04-2.6-3.28-3.72c-1.25-1.11-2.65-2.09-4.1-3.03
				C293.49,147.45,291.98,146.57,290.41,145.67z"/>
		</g>
		<g>
			<path class="st32" d="M330.9,177.58c-0.39-1.21,0.09-2.56,0.86-3.57c0.8-1.02,1.91-1.73,3.06-2.12c0.58-0.23,1.17-0.31,1.75-0.41
				c0.59-0.05,1.18-0.07,1.76-0.02c0.58,0.08,1.15,0.16,1.71,0.34c0.56,0.21,1.1,0.41,1.62,0.75c-0.55,0.33-1.07,0.52-1.59,0.72
				c-0.51,0.2-1.01,0.39-1.5,0.53c-0.48,0.17-0.95,0.32-1.42,0.46c-0.44,0.18-0.92,0.27-1.33,0.46c-0.88,0.29-1.69,0.61-2.49,1.03
				C332.55,176.2,331.74,176.69,330.9,177.58z"/>
		</g>
		<g>
			<path class="st32" d="M372.53,182.63c1.6-1.02,3.62-1.3,5.56-1.02c1.95,0.28,3.83,1.21,5.32,2.5l1.06,1.03
				c0.31,0.37,0.6,0.77,0.89,1.16l0.42,0.59c0.12,0.21,0.23,0.42,0.34,0.63c0.22,0.42,0.43,0.85,0.64,1.28
				c0.34,0.88,0.61,1.78,0.83,2.68c0.12,0.93,0.25,1.85,0.24,2.78c-0.62-0.73-1.11-1.48-1.6-2.21c-0.55-0.7-1.03-1.41-1.52-2.09
				c-0.27-0.32-0.53-0.64-0.78-0.97l-0.38-0.49l-0.42-0.44c-0.28-0.29-0.53-0.61-0.81-0.89l-0.87-0.8
				C379.09,184.33,376.23,183.03,372.53,182.63z"/>
		</g>
		<g>
			<path class="st1" d="M373.24,254.19c1.13,1.18,1.9,2.66,2.44,4.2c0.54,1.54,0.88,3.17,0.93,4.81c0.05,1.64-0.08,3.29-0.51,4.87
				c-0.38,1.58-1.05,3.09-1.95,4.44c0.11-1.63,0.33-3.15,0.4-4.68c0.13-1.52,0.09-3.03,0.06-4.53c-0.05-1.5-0.21-3-0.44-4.51
				C373.94,257.26,373.64,255.76,373.24,254.19z"/>
		</g>
		<g>
			<path class="st1" d="M256.29,142.67c-1.58,0.9-3.08,1.79-4.54,2.71c-1.45,0.94-2.84,1.92-4.1,3.03
				c-1.24,1.12-2.36,2.33-3.28,3.72c-0.89,1.42-1.46,2.99-1.96,4.76c-0.34-1.77-0.17-3.72,0.57-5.47c0.77-1.73,1.95-3.27,3.35-4.51
				c1.4-1.25,3.02-2.18,4.69-2.9C252.7,143.29,254.46,142.78,256.29,142.67z"/>
		</g>
		<path class="st5" d="M145.89,169.93c0,0,28.15,5.32,45.17-14.18c0,0-5.32,8.51-10.28,12.41c0,0,21.63,1.77,33.33-12.41
			c0,0,5.5,24.11,21.36,35.1c0,0,8.28-52.65-28.97-62.4C169.25,118.7,150.71,140.15,145.89,169.93z"/>
		
			<ellipse transform="matrix(0.6393 -0.7689 0.7689 0.6393 -132.9375 106.1502)" class="st1" cx="46.68" cy="194.78" rx="17.87" ry="19.64"/>
		<path class="st23" d="M397.49,216"/>
		<g>
			<defs>
				<path id="SVGID_23_" d="M145.89,169.93c0,0,28.15,5.32,45.17-14.18c0,0-5.32,8.51-10.28,12.41c0,0,21.63,1.77,33.33-12.41
					c0,0,5.5,24.11,21.36,35.1c0,0,8.28-52.65-28.97-62.4C169.25,118.7,150.71,140.15,145.89,169.93z"/>
			</defs>
			<clipPath id="SVGID_24_">
				<use xlink:href="#SVGID_23_"  style="overflow:visible;"/>
			</clipPath>
			<path class="st33" d="M230.56,119.5c0,0-45.95,60.96-109.51,43.48"/>
			<path class="st33" d="M224.46,114.5c0,0-46.45,55.16-106.2,40.08"/>
			<path class="st33" d="M231.13,131.16c0,0-16.75,24.16,8.56,54"/>
		</g>
		<path d="M109.19,355.99c0,0,11.11,42.73,11.87,60.72c0.75,18-3.28,32.4,0,49.01c3.28,16.61-5.89,34.28-5.89,34.28h11.54
			c0,0,10.41-30.92,13.01-67.83c0,0-0.46-0.06,2.41-0.74c0,0-3.77-22.13-4.83-32.65c0,0-3.78,2.02-8.29,3.37l-1.77-12.71
			C127.24,389.44,113.87,367.73,109.19,355.99z"/>
		<path d="M357.77,379.94c0,0,9.18-2.94,15.47-4.28c0,0-0.78,13.17,4.66,19.75c5.44,6.59,14.7,36.59,12.9,44.59
			c-1.8,8-12.67,31.33-12.9,60h-18.44c0,0,3.18-39.69,13.69-69.84l-1.22-6.82c0,0-3.29-10.13-5.36-20.12
			C366.57,403.21,354.21,397.88,357.77,379.94z"/>
		<path class="st34" d="M120.43,297.56c0,0-9.76,1.77-21.43-2.23l-2.65,13.51C96.35,308.84,112.52,307.79,120.43,297.56z"/>
		<path class="st1" d="M129.61,213.01c0,0-6.27-19.68-32.68-22.17c-26.41-2.48-36.69,12.91-36.69,12.91s-19.14,1.62-21.27,30.34
			c-2.13,28.72,1.77,64.36-4.96,72.24c0,0,6.28,6.34,18.08,9.59l2.84-13.61l5.87,15.22c11.09,1.09,25.45-0.97,42.7-10.67
			c0,0-11.18-41.92-28.81-91.55C74.68,215.31,111.41,219.58,129.61,213.01z"/>
		<g>
			<defs>
				<path id="SVGID_25_" d="M129.61,213.01c0,0-6.27-19.68-32.68-22.17c-26.41-2.48-36.69,12.91-36.69,12.91
					s-19.14,1.62-21.27,30.34c-2.13,28.72,1.77,64.36-4.96,72.24c0,0,6.28,6.34,18.08,9.59l2.84-13.61l5.87,15.22
					c11.09,1.09,25.45-0.97,42.7-10.67c0,0-11.18-41.92-28.81-91.55C74.68,215.31,111.41,219.58,129.61,213.01z"/>
			</defs>
			<clipPath id="SVGID_26_">
				<use xlink:href="#SVGID_25_"  style="overflow:visible;"/>
			</clipPath>
			<path class="st35" d="M54.5,193.77c0,0,38.61,13.92,82.8,8.32"/>
			<path class="st35" d="M46.68,197.42c0,0,46.58,16.15,95.45,11.61"/>
			<path class="st35" d="M50,206.48c0,0-8.82,41.04,40.44,118.52"/>
		</g>
		<circle class="st32" cx="254.37" cy="160.38" r="6.58"/>
		<circle class="st32" cx="290.15" cy="165.98" r="6.58"/>
		<circle class="st32" cx="337.48" cy="190.44" r="6"/>
		<circle class="st32" cx="369.77" cy="200.84" r="6"/>
		<circle class="st32" cx="354.33" cy="265.92" r="6"/>
		<circle class="st32" cx="97.02" cy="252.23" r="6"/>
		<circle class="st32" cx="128.42" cy="238.85" r="6"/>
		<g>
			<path class="st32" d="M163.76,180.67c1.52-1.13,3.32-1.88,5.27-2.17c0.98-0.16,2-0.13,3.03,0.06c1.02,0.21,2.04,0.67,2.87,1.38
				c0.83,0.7,1.45,1.61,1.85,2.56c0.39,0.96,0.6,1.94,0.7,2.92c0.16,1.95-0.11,3.85-0.69,5.65c-0.25-1.87-0.43-3.69-0.85-5.39
				c-0.44-1.69-1.14-3.24-2.3-4.21c-1.15-0.99-2.77-1.39-4.5-1.42C167.41,180.03,165.6,180.31,163.76,180.67z"/>
		</g>
		<g>
			<path class="st32" d="M217.79,193.37c-1.53-1.1-3.05-2.1-4.64-2.8c-1.58-0.69-3.23-1-4.68-0.58c-1.46,0.4-2.74,1.52-3.84,2.87
				c-1.09,1.37-2.01,2.95-3.01,4.55c0.22-1.88,0.76-3.72,1.72-5.42c0.49-0.85,1.09-1.65,1.84-2.36c0.76-0.7,1.7-1.27,2.75-1.56
				c1.05-0.29,2.17-0.3,3.18-0.06c1.02,0.25,1.96,0.65,2.78,1.2C215.54,190.28,216.87,191.72,217.79,193.37z"/>
		</g>
		<g>
			<path class="st36" d="M109.19,239.08c0.81,1.14,1.53,2.31,2.25,3.49c0.71,1.18,1.4,2.38,2.06,3.58l-0.86-0.44
				c2.42-0.58,4.86-1.07,7.31-1.54l0.03-0.01c0.43-0.08,0.85,0.14,1.03,0.52c0.65,1.33,1.04,2.63,1.26,4.04
				c0.18,1.4,0.16,2.88-0.32,4.26c-0.14,0.34-0.22,0.69-0.41,1.01c-0.18,0.32-0.36,0.63-0.55,0.93c-0.48,0.54-0.93,1.1-1.52,1.49
				c-0.54,0.46-1.19,0.71-1.79,1.01c-0.62,0.26-1.29,0.39-1.93,0.56c0.56-0.37,1.14-0.67,1.66-1.05c0.49-0.42,1.03-0.75,1.4-1.26
				c0.46-0.42,0.75-0.96,1.07-1.45c0.11-0.28,0.23-0.55,0.34-0.82c0.13-0.26,0.15-0.57,0.23-0.85c0.22-1.15,0.21-2.35-0.05-3.53
				c-0.23-1.17-0.63-2.4-1.15-3.41l1.06,0.51c-2.45,0.43-4.91,0.83-7.38,1.14l-0.09,0.01c-0.34,0.04-0.65-0.15-0.78-0.45
				c-0.54-1.27-1.04-2.55-1.53-3.84C110.06,241.71,109.58,240.42,109.19,239.08z"/>
		</g>
		<g>
			<path class="st37" d="M189.2,182.63c-0.1,1.39-0.29,2.76-0.47,4.13c-0.2,1.36-0.43,2.72-0.68,4.08l-0.39-0.89
				c2.24,1.09,4.44,2.26,6.62,3.45l0.03,0.02c0.38,0.21,0.56,0.65,0.47,1.05c-0.34,1.44-0.87,2.69-1.59,3.93
				c-0.75,1.19-1.7,2.32-2.95,3.09c-0.32,0.17-0.61,0.39-0.96,0.51c-0.34,0.13-0.68,0.26-1.02,0.37c-0.72,0.11-1.42,0.26-2.12,0.18
				c-0.7,0.01-1.37-0.2-2.03-0.36c-0.65-0.2-1.25-0.52-1.85-0.79c0.67,0.07,1.31,0.2,1.95,0.24c0.65-0.02,1.27,0.07,1.88-0.08
				c0.62-0.04,1.19-0.27,1.75-0.45c0.26-0.15,0.52-0.28,0.78-0.41c0.26-0.12,0.48-0.34,0.72-0.51c0.9-0.75,1.65-1.68,2.21-2.76
				c0.57-1.04,1.04-2.25,1.27-3.37l0.49,1.07c-2.17-1.22-4.32-2.47-6.43-3.8l-0.07-0.05c-0.29-0.18-0.41-0.53-0.32-0.84
				c0.39-1.32,0.81-2.63,1.25-3.94C188.2,185.21,188.65,183.91,189.2,182.63z"/>
		</g>
		<g>
			<path class="st36" d="M355.19,186.59c-0.09,1.39-0.28,2.76-0.46,4.13c-0.2,1.37-0.42,2.73-0.66,4.08
				c-0.06,0.34-0.34,0.58-0.66,0.61l-0.09,0.01c-2.48,0.24-4.97,0.38-7.45,0.49l0.92-0.73c-0.29,1.1-0.42,2.39-0.39,3.58
				c0.01,1.21,0.26,2.38,0.72,3.46c0.14,0.25,0.23,0.54,0.41,0.77c0.17,0.24,0.35,0.47,0.51,0.72c0.42,0.41,0.82,0.88,1.36,1.19
				c0.48,0.41,1.08,0.62,1.64,0.92c0.59,0.25,1.22,0.42,1.85,0.66c-0.65-0.03-1.34-0.02-2-0.13c-0.66-0.16-1.35-0.27-1.97-0.6
				c-0.66-0.25-1.22-0.7-1.81-1.12c-0.25-0.25-0.5-0.52-0.74-0.79c-0.25-0.26-0.41-0.59-0.62-0.89c-0.77-1.25-1.11-2.69-1.24-4.09
				c-0.09-1.43,0.01-2.78,0.35-4.22c0.1-0.43,0.47-0.71,0.89-0.73l0.03,0c2.49-0.08,4.97-0.13,7.47-0.09l-0.75,0.62
				c0.38-1.32,0.8-2.63,1.23-3.94C354.2,189.18,354.65,187.87,355.19,186.59z"/>
		</g>
		<g>
			<path class="st37" d="M269.2,157.58c0.3,1.36,0.51,2.73,0.72,4.09c0.19,1.37,0.36,2.73,0.5,4.1l-0.62-0.74
				c2.46,0.41,4.9,0.91,7.33,1.43l0.03,0.01c0.43,0.09,0.72,0.46,0.75,0.88c0.08,1.48-0.07,2.83-0.41,4.22
				c-0.38,1.36-0.97,2.71-1.95,3.8c-0.26,0.26-0.48,0.55-0.77,0.77c-0.29,0.22-0.58,0.44-0.87,0.64c-0.65,0.31-1.28,0.65-1.98,0.78
				c-0.67,0.21-1.37,0.19-2.04,0.23c-0.68-0.01-1.34-0.14-1.99-0.23c0.66-0.12,1.31-0.18,1.93-0.32c0.61-0.2,1.24-0.29,1.78-0.61
				c0.58-0.21,1.06-0.59,1.55-0.92c0.21-0.22,0.42-0.42,0.63-0.62c0.22-0.19,0.36-0.47,0.54-0.69c0.65-0.97,1.1-2.08,1.33-3.27
				c0.25-1.16,0.36-2.45,0.26-3.59l0.78,0.88c-2.42-0.56-4.84-1.14-7.24-1.82l-0.08-0.02c-0.33-0.09-0.54-0.39-0.54-0.72
				c0-1.38,0.03-2.75,0.08-4.13C268.98,160.35,269.04,158.97,269.2,157.58z"/>
		</g>
		<g>
			<path class="st32" d="M97.02,264.38l33.65-3.48c0,0-2.76,23.82-16.39,22.44S97.02,264.38,97.02,264.38z"/>
			<g>
				<defs>
					<path id="SVGID_27_" d="M97.02,264.38l33.65-3.48c0,0-2.76,23.82-16.39,22.44S97.02,264.38,97.02,264.38z"/>
				</defs>
				<clipPath id="SVGID_28_">
					<use xlink:href="#SVGID_27_"  style="overflow:visible;"/>
				</clipPath>
				<path class="st38" d="M134.29,260.39c0,0-12.7,13.39-24.06,11.47s-19.22-7.48-19.22-7.48l16.39-5.57l23.28-4.62L134.29,260.39z"
					/>
			</g>
		</g>
		<g>
			<path class="st32" d="M167.15,195.3l27.37,20.19c0,0-9.8,14.89-24.18,7.45C155.96,215.49,167.15,195.3,167.15,195.3z"/>
			<g>
				<defs>
					<path id="SVGID_29_" d="M167.15,195.3l27.37,20.19c0,0-9.8,14.89-24.18,7.45C155.96,215.49,167.15,195.3,167.15,195.3z"/>
				</defs>
				<clipPath id="SVGID_30_">
					<use xlink:href="#SVGID_29_"  style="overflow:visible;"/>
				</clipPath>
				<path class="st39" d="M201.01,213.01c0,0-21.18,13.4-39.5-15.99l4.33-6.58L201.01,213.01z"/>
			</g>
		</g>
		<g>
			<path class="st32" d="M339.43,213.01l33.72-2.27c0,0,2.03,20.35-13.45,23.19C344.21,236.76,339.43,213.01,339.43,213.01z"/>
			<g>
				<defs>
					<path id="SVGID_31_" d="M339.43,213.01l33.72-2.27c0,0,2.03,20.35-13.45,23.19C344.21,236.76,339.43,213.01,339.43,213.01z"/>
				</defs>
				<clipPath id="SVGID_32_">
					<use xlink:href="#SVGID_31_"  style="overflow:visible;"/>
				</clipPath>
				<path class="st40" d="M334.29,213.01c0,0,6.2,8.05,22.05,8.24s25.11-13.84,25.11-13.84H357.2L334.29,213.01z"/>
			</g>
		</g>
		<path class="st1" d="M366.57,224.94c0,0,3.74-10.96,21.96-8.21c0,0,0.12-14.58,21.33-8.89c21.21,5.7,26.88,22.71,26.53,30.16
			c0,0,18.08,0.81,16.31,22.39c-1.77,21.58,5.23,46.48,5.23,46.48s13.47,4.88,4.61,20.83c0,0,14.55,12.62,3.02,28.29
			c-11.53,15.67-22.07,9.64-22.07,9.64s3.19,15.24-12.76,15.95c-15.95,0.71-17.11-4.03-17.11-4.03s-9.48,6.16-19.05,1.91
			c-9.57-4.25-10.64-15.24-10.64-15.24s-10.02,1.06-14.05-10.28c-4.03-11.34,8.02-16.2,8.02-16.2s-9.57-13.94,3.19-22.09
			c0,0-2.48-17.37,11.7-17.73c0,0-7.09-14.18,7.45-21.98c0,0-19.85-19.14-14.54-53C385.7,222.93,374.27,220.08,366.57,224.94z"/>
		<path class="st1" d="M385.7,222.93c0,0-23.31-9.6-40.05,17.11l3.23,1.11c0,0,10.03,6,22.71,8.62l4.54-9.93l-0.55,10.62
			c3.98,0.55,8.13,0.7,12.25,0.19C387.82,250.65,383.57,233.3,385.7,222.93z"/>
		<g>
			<path class="st36" d="M251.71,175.96c1.23,1.83,2.57,3.5,4.05,4.98c1.49,1.46,3.14,2.72,4.97,3.55c1.81,0.87,3.81,1.35,5.87,1.35
				c1.04,0.11,2.07-0.09,3.14-0.15c1.06-0.12,2.1-0.41,3.22-0.54c-0.95,0.54-1.93,1.09-2.98,1.49c-1.07,0.3-2.15,0.73-3.31,0.76
				c-0.57,0.04-1.15,0.17-1.72,0.1l-1.74-0.15c-1.13-0.25-2.28-0.53-3.33-1.05c-2.11-1.01-3.92-2.53-5.29-4.34
				C253.22,180.16,252.18,178.13,251.71,175.96z"/>
		</g>
		<g>
			<defs>
				<path id="SVGID_33_" d="M390.48,222.93c14.43,3.35,35.09,27.82,23.13,60.97s-30.83,35.51-30.83,35.51l1.79,14.8
					c0,0-3.13,9.77-22.27,10.67v-20.91c0,0-40.7,3.19-29.92-49.99c0,0-10.28-10.09-3.26-15.99c8.36-7.03,12.44-1.56,12.44-1.56
					S353.79,214.43,390.48,222.93z"/>
			</defs>
			<clipPath id="SVGID_34_">
				<use xlink:href="#SVGID_33_"  style="overflow:visible;"/>
			</clipPath>
			<g class="st41">
				<path class="st5" d="M329.11,277.35l22.76,2.48c0,0-0.28,24.46-22.76,20.56V277.35z"/>
				<g>
					<defs>
						<path id="SVGID_35_" d="M329.11,277.35l22.76,2.48c0,0-0.28,24.46-22.76,20.56V277.35z"/>
					</defs>
					<clipPath id="SVGID_36_">
						<use xlink:href="#SVGID_35_"  style="overflow:visible;"/>
					</clipPath>
					<path class="st42" d="M322.49,276.15c0,0,6.84,19.63,30.95,7.76c24.11-11.87-7.78-7.76-7.78-7.76l-22.09-4L322.49,276.15z"/>
				</g>
			</g>
		</g>
		<path class="st4" d="M433.6,393.41c-3.34-4.95-4.04-10.52-5.74-15.51c-1.7-4.99-9.49-0.84-6,8.66c0,0-13.77,1.17-18.73,4.2
			c-4.97,3.03,1.27,4.91,6.45,3.24c0,0-10.44,1.64-11.12,5.17c-0.68,3.53,8.09,2.9,8.09,2.9s-5.38,0.62-5.39,3.95s8.47,3.3,8.47,3.3
			s-4.9-1.28-5.37,4.62c-0.47,5.9,17.34,5.02,17.34,5.02c7.75-0.5,9.68-0.13,9.9-4.74S438.83,401.17,433.6,393.41z"/>
		<path class="st23" d="M425.82,316.53c0,0-16.69-9.67-16.69,12.76"/>
		<path class="st23" d="M442.19,327.75c0,0,14.4-1.3,13.07,14.38"/>
		<path class="st23" d="M420.21,342.44c0,0,6.87-12.97,20.08-4.71"/>
		<path class="st23" d="M399.64,336.44c0,0-11.17,1.76-8.4,15.41"/>
		<path class="st23" d="M409.92,355.99c0,0-8.15,5.45-0.78,12.48"/>
		<g>
			<defs>
				<path id="SVGID_37_" d="M385.7,222.93c0,0-23.31-9.6-40.05,17.11l3.23,1.11c0,0,10.03,6,22.71,8.62l4.54-9.93l-0.55,10.62
					c3.98,0.55,8.13,0.7,12.25,0.19C387.82,250.65,383.57,233.3,385.7,222.93z"/>
			</defs>
			<clipPath id="SVGID_38_">
				<use xlink:href="#SVGID_37_"  style="overflow:visible;"/>
			</clipPath>
			<path class="st43" d="M391.24,210.16c0,0-11.95,36.67-58.84,24"/>
			<path class="st43" d="M390.68,221.93c0,0-23.17,28.47-48.63,18.38"/>
		</g>
		<g>
			<g>
				<path class="st36" d="M304.34,279.13c-1.35-0.25-2.56-0.79-3.73-1.4c-1.15-0.64-2.27-1.37-3.19-2.39
					c1.33,0.34,2.51,0.9,3.67,1.51C302.23,277.49,303.35,278.18,304.34,279.13z"/>
			</g>
			<g>
				<path class="st36" d="M309.96,277.23c-1.69-0.6-3.22-1.43-4.73-2.29c-1.5-0.89-2.96-1.81-4.36-2.92
					c1.75,0.4,3.34,1.19,4.86,2.06C307.24,274.98,308.7,275.96,309.96,277.23z"/>
			</g>
			<g>
				<path class="st36" d="M311.4,271.33c-1.74-0.31-3.37-0.85-4.99-1.41c-1.62-0.58-3.19-1.2-4.8-1.92
					c0.89-0.04,1.76,0.08,2.62,0.26c0.86,0.17,1.69,0.43,2.51,0.71C308.38,269.57,309.97,270.29,311.4,271.33z"/>
			</g>
			<g>
				<path class="st36" d="M230.56,304.65c-1.75,0.83-3.45,1.73-5.14,2.63c-1.68,0.93-3.34,1.88-4.93,2.93
					c-1.59,1.05-3.12,2.18-4.57,3.41c-1.42,1.27-2.75,2.63-3.93,4.18c0.84-1.75,2.02-3.34,3.39-4.74c1.38-1.39,2.94-2.59,4.56-3.68
					C223.23,307.27,226.8,305.61,230.56,304.65z"/>
			</g>
			<g>
				<path class="st36" d="M232.77,308.84c-1.49,0.4-2.89,0.98-4.26,1.61c-1.36,0.65-2.68,1.37-3.91,2.23
					c-1.23,0.85-2.44,1.75-3.55,2.77c-1.13,1-2.18,2.1-3.26,3.21c0.38-0.67,0.79-1.33,1.23-1.96c0.48-0.61,0.93-1.25,1.48-1.8
					c1.03-1.17,2.26-2.15,3.54-3.05c1.3-0.87,2.7-1.59,4.17-2.11C229.67,309.2,231.22,308.86,232.77,308.84z"/>
			</g>
			<g>
				<path class="st36" d="M406.05,394.75c2.3-0.77,4.64-1.23,7-1.62c2.36-0.36,4.73-0.65,7.16-0.63c-2.3,0.77-4.64,1.23-7,1.62
					C410.85,394.48,408.47,394.77,406.05,394.75z"/>
			</g>
			<g>
				<path class="st36" d="M404.67,402.49c2.54-0.68,5.12-1.03,7.72-1.26c1.3-0.1,2.6-0.17,3.91-0.16c1.3,0.02,2.64,0.06,3.91,0.42
					c-1.31,0.03-2.58,0.24-3.87,0.35c-1.29,0.14-2.58,0.26-3.87,0.37C409.88,402.43,407.3,402.6,404.67,402.49z"/>
			</g>
			<g>
				<path class="st36" d="M407.89,409.24c2.02-0.57,4.09-0.8,6.16-0.9c1.04-0.03,2.08-0.03,3.12,0.07c0.52,0.04,1.04,0.12,1.56,0.22
					c0.5,0.14,1.07,0.22,1.47,0.6c-0.49-0.17-1.01-0.11-1.52-0.11l-1.53,0.07l-3.07,0.15C412.04,409.41,409.98,409.46,407.89,409.24
					z"/>
			</g>
		</g>
	</g>
</g>
</svg>
